<?xml version="1.0" encoding="UTF-8"?>
<svg xmlns="http://www.w3.org/2000/svg" xmlns:xlink="http://www.w3.org/1999/xlink" width="366.13pt" height="366.13pt" viewBox="0 0 366.13 366.13" version="1.1">
<defs>
<clipPath id="clip1">
  <path d="M 0 0 L 366.128906 0 L 366.128906 366.128906 L 0 366.128906 Z M 0 0 "/>
</clipPath>
</defs>
<g id="surface1">
<g clip-path="url(#clip1)" clip-rule="nonzero">
<path style=" stroke:none;fill-rule:nonzero;fill:rgb(59.999084%,30.198669%,27.49939%);fill-opacity:1;" d="M 0 183.027344 C 0 284 82.066406 366.128906 183.136719 366.128906 C 283.984375 366.128906 366.132813 284 366.132813 183.027344 C 366.132813 82.191406 283.984375 0 183.136719 0 C 82.066406 0 0 82.191406 0 183.027344 M 19.789063 183.027344 C 19.789063 93.101563 93.0625 19.808594 183.136719 19.808594 C 273.054688 19.808594 346.367188 93.101563 346.367188 183.027344 C 346.367188 273.050781 273.054688 346.359375 183.136719 346.359375 C 93.0625 346.359375 19.789063 273.050781 19.789063 183.027344 "/>
</g>
<path style=" stroke:none;fill-rule:nonzero;fill:rgb(59.999084%,30.198669%,27.49939%);fill-opacity:1;" d="M 74.625 177.675781 L 73.078125 177.203125 C 73.191406 176.945313 73.273438 176.6875 73.273438 176.390625 C 73.273438 175.503906 72.761719 174.714844 71.921875 174.117188 C 70.984375 173.558594 69.804688 173.085938 68.386719 172.660156 C 66.972656 172.230469 65.449219 171.886719 63.734375 171.652344 C 62.105469 171.4375 60.515625 171.304688 59.0625 171.304688 C 57.21875 171.304688 55.351563 171.609375 53.535156 172.183594 C 51.730469 172.695313 50.148438 173.472656 48.75 174.539063 C 47.292969 175.828125 46.15625 177.242188 45.296875 179.023438 C 44.441406 180.933594 43.992188 183.007813 43.992188 185.648438 C 43.992188 188.242188 44.441406 190.234375 45.296875 192.25 C 46.15625 193.964844 47.292969 195.484375 48.75 196.6875 C 50.148438 197.691406 51.730469 198.507813 53.546875 199.113281 C 55.375 199.710938 57.242188 200.007813 59.0625 200.007813 C 61.890625 200.007813 64.441406 199.710938 66.710938 199.195313 C 68.964844 198.683594 70.894531 198.164063 72.480469 197.566406 L 72.480469 190.921875 L 62.941406 190.921875 C 62.234375 190.921875 61.71875 191.09375 61.378906 191.4375 C 61.054688 191.777344 60.800781 192.546875 60.6875 193.496094 L 59.3125 193.496094 L 59.3125 183.589844 L 60.6875 183.589844 C 60.800781 184.574219 61.054688 185.046875 61.378906 185.21875 C 61.71875 185.476563 62.234375 185.601563 62.941406 185.601563 L 81.570313 185.601563 L 81.570313 186.953125 C 80.601563 187.078125 79.984375 187.296875 79.722656 187.535156 C 79.46875 187.765625 79.296875 188.242188 79.296875 188.910156 L 79.296875 197.566406 C 79.296875 198.085938 79.515625 198.382813 79.8125 198.507813 C 80.066406 198.722656 80.433594 198.851563 80.867188 199.113281 L 80.867188 200.441406 C 79.164063 201.554688 77.476563 202.5 75.675781 203.308594 C 73.808594 204.101563 72.011719 204.75 70.144531 205.175781 C 68.257813 205.601563 66.394531 205.816406 64.503906 205.953125 C 62.703125 206.011719 60.835938 206.058594 59.0625 206.058594 C 55.546875 206.058594 52.414063 205.644531 49.566406 204.789063 C 46.6875 203.890625 44.226563 202.453125 42.164063 200.78125 C 40.175781 198.851563 38.589844 196.859375 37.449219 194.179688 C 36.339844 191.648438 35.828125 188.886719 35.828125 185.519531 C 35.828125 182.089844 36.339844 179.324219 37.449219 176.859375 C 38.589844 174.117188 40.175781 172.101563 42.164063 170.148438 C 44.226563 168.453125 46.648438 166.992188 49.523438 166.007813 C 52.414063 165.15625 55.546875 164.683594 59.0625 164.683594 C 61.226563 164.683594 63.328125 164.851563 65.296875 165.113281 C 67.289063 165.410156 69.027344 165.753906 70.617188 166.097656 C 72.117188 166.484375 73.398438 166.867188 74.429688 167.207031 C 75.457031 167.597656 76.078125 167.769531 76.324219 167.769531 C 76.785156 167.769531 77.113281 167.683594 77.34375 167.46875 C 77.605469 167.207031 77.859375 167.039063 78.117188 166.824219 L 78.980469 167.46875 "/>
<path style=" stroke:none;fill-rule:nonzero;fill:rgb(59.999084%,30.198669%,27.49939%);fill-opacity:1;" d="M 120.535156 173.121094 C 122.90625 173.726563 124.996094 174.753906 126.933594 176.347656 C 128.859375 177.628906 130.433594 179.410156 131.625 181.574219 C 132.890625 183.71875 133.507813 186.121094 133.507813 189.160156 C 133.507813 192.164063 132.890625 194.5625 131.625 196.859375 C 130.433594 198.851563 128.859375 200.738281 126.933594 202.023438 C 124.996094 203.480469 122.90625 204.578125 120.535156 205.179688 C 118.269531 205.777344 115.929688 206.058594 113.710938 206.058594 C 111.429688 206.058594 109.160156 205.777344 106.800781 205.179688 C 104.488281 204.578125 102.320313 203.480469 100.433594 202.023438 C 98.527344 200.738281 96.984375 198.851563 95.71875 196.859375 C 94.476563 194.5625 93.878906 192.164063 93.878906 189.160156 C 93.878906 186.121094 94.476563 183.71875 95.71875 181.574219 C 96.984375 179.410156 98.527344 177.628906 100.433594 176.347656 C 102.320313 174.753906 104.488281 173.726563 106.800781 173.121094 C 109.160156 172.484375 111.429688 172.101563 113.710938 172.101563 C 115.929688 172.101563 118.269531 172.484375 120.535156 173.121094 M 109.03125 178.554688 C 107.488281 179.105469 106.070313 179.925781 104.835938 180.886719 C 103.5625 181.832031 102.582031 182.902344 101.78125 184.492188 C 101.011719 185.773438 100.625 187.339844 100.625 189.160156 C 100.625 190.835938 101.011719 192.640625 101.78125 193.875 C 102.582031 195.3125 103.5625 196.558594 104.835938 197.4375 C 106.070313 198.382813 107.488281 199.113281 109.03125 199.664063 C 110.554688 200.222656 112.113281 200.484375 113.710938 200.484375 C 115.222656 200.484375 116.773438 200.222656 118.402344 199.664063 C 119.863281 199.113281 121.265625 198.382813 122.5625 197.4375 C 123.800781 196.558594 124.808594 195.3125 125.605469 193.875 C 126.359375 192.640625 126.78125 190.835938 126.78125 189.160156 C 126.78125 187.339844 126.359375 185.773438 125.605469 184.492188 C 124.808594 182.902344 123.800781 181.832031 122.5625 180.886719 C 121.265625 179.925781 119.863281 179.105469 118.402344 178.554688 C 116.773438 178.054688 115.222656 177.847656 113.710938 177.847656 C 112.113281 177.847656 110.554688 178.054688 109.03125 178.554688 "/>
<path style=" stroke:none;fill-rule:nonzero;fill:rgb(59.999084%,30.198669%,27.49939%);fill-opacity:1;" d="M 163.414063 204.832031 L 163.414063 205.90625 L 153.914063 205.90625 L 153.914063 204.832031 C 154.25 204.832031 154.460938 204.75 154.667969 204.535156 C 154.902344 204.363281 155.035156 204.058594 155.035156 203.699219 L 155.035156 178.808594 L 144.898438 178.808594 C 144.53125 178.808594 144.210938 178.933594 143.871094 179.152344 C 143.546875 179.410156 143.335938 179.835938 143.335938 180.457031 L 142.21875 180.457031 L 142.21875 171.691406 L 143.335938 171.691406 C 143.335938 172.3125 143.546875 172.695313 143.871094 172.914063 C 144.210938 173.121094 144.53125 173.214844 144.898438 173.214844 L 172.144531 173.214844 C 172.566406 173.214844 172.933594 173.121094 173.265625 172.914063 C 173.539063 172.695313 173.710938 172.3125 173.710938 171.691406 L 174.914063 171.691406 L 174.914063 180.457031 L 173.710938 180.457031 C 173.710938 179.835938 173.539063 179.410156 173.265625 179.152344 C 172.933594 178.933594 172.566406 178.808594 172.144531 178.808594 L 162.0625 178.808594 L 162.0625 203.699219 C 162.0625 204.449219 162.492188 204.832031 163.414063 204.832031 "/>
<path style=" stroke:none;fill-rule:nonzero;fill:rgb(59.999084%,30.198669%,27.49939%);fill-opacity:1;" d="M 214.546875 175.363281 C 214.546875 174.542969 214.09375 174.152344 213.21875 174.152344 L 213.21875 173.121094 L 222.691406 173.121094 L 222.691406 174.152344 C 222.371094 174.152344 222.160156 174.242188 221.894531 174.414063 C 221.707031 174.628906 221.5625 174.925781 221.5625 175.363281 L 221.5625 203.699219 C 221.5625 204.058594 221.707031 204.363281 221.894531 204.535156 C 222.160156 204.75 222.371094 204.832031 222.691406 204.832031 L 222.691406 205.90625 L 213.21875 205.90625 L 213.21875 204.832031 C 214.09375 204.832031 214.546875 204.449219 214.546875 203.699219 L 214.546875 191.996094 L 194.910156 191.996094 L 194.910156 203.699219 C 194.910156 204.058594 195.054688 204.363281 195.257813 204.535156 C 195.488281 204.75 195.722656 204.832031 196.007813 204.832031 L 196.007813 205.90625 L 186.808594 205.90625 L 186.808594 204.832031 C 187.476563 204.832031 187.839844 204.449219 187.839844 203.699219 L 187.839844 175.363281 C 187.839844 174.496094 187.476563 174.152344 186.808594 174.152344 L 186.808594 173.121094 L 196.007813 173.121094 L 196.007813 174.152344 C 195.722656 174.152344 195.488281 174.242188 195.257813 174.414063 C 195.054688 174.628906 194.910156 174.925781 194.910156 175.363281 L 194.910156 185.945313 L 214.546875 185.945313 "/>
<path style=" stroke:none;fill-rule:nonzero;fill:rgb(59.999084%,30.198669%,27.49939%);fill-opacity:1;" d="M 234.339844 204.832031 C 234.867188 204.75 235.367188 204.449219 235.644531 204.019531 C 236.007813 203.527344 236.351563 202.972656 236.652344 202.371094 L 248.734375 178.054688 C 249.035156 177.628906 249.34375 177.113281 249.574219 176.726563 C 249.785156 176.300781 249.941406 175.871094 249.941406 175.488281 C 249.941406 175.019531 249.742188 174.714844 249.464844 174.496094 C 249.121094 174.328125 248.84375 174.195313 248.460938 174.152344 L 248.460938 173.121094 L 259.59375 173.121094 L 259.59375 174.152344 C 259.261719 174.195313 258.949219 174.328125 258.640625 174.496094 C 258.34375 174.628906 258.175781 175.019531 258.175781 175.488281 C 258.175781 175.871094 258.253906 176.253906 258.410156 176.601563 C 258.550781 176.859375 258.75 177.242188 259.09375 177.800781 L 272.730469 203.136719 C 272.917969 203.652344 273.214844 204.019531 273.5625 204.1875 C 273.945313 204.402344 274.398438 204.617188 274.875 204.832031 L 274.875 205.90625 L 263.347656 205.90625 L 263.347656 204.832031 C 263.511719 204.832031 263.765625 204.75 264.007813 204.660156 C 264.238281 204.488281 264.386719 204.316406 264.386719 204.058594 C 264.386719 203.652344 264.21875 203.050781 263.917969 202.371094 L 261.382813 197.738281 L 245.394531 197.738281 L 243.015625 202.152344 C 242.613281 203.050781 242.371094 203.734375 242.371094 204.105469 C 242.371094 204.617188 242.777344 204.832031 243.609375 204.832031 L 243.609375 205.90625 L 234.339844 205.90625 Z M 259.027344 193.234375 L 253.535156 181.617188 L 247.355469 193.234375 "/>
<path style=" stroke:none;fill-rule:nonzero;fill:rgb(59.999084%,30.198669%,27.49939%);fill-opacity:1;" d="M 285.246094 204.832031 C 285.570313 204.832031 285.847656 204.75 286.167969 204.535156 C 286.429688 204.363281 286.554688 204.058594 286.554688 203.699219 L 286.554688 175.226563 C 286.554688 174.800781 286.429688 174.496094 286.167969 174.328125 C 285.847656 174.195313 285.570313 174.152344 285.246094 174.152344 L 285.246094 173.121094 L 297.554688 173.121094 L 297.554688 174.152344 C 297.332031 174.152344 297.125 174.195313 296.871094 174.289063 C 296.613281 174.460938 296.503906 174.628906 296.503906 174.925781 C 296.503906 175.179688 296.570313 175.488281 296.757813 175.828125 C 296.957031 176.21875 297.148438 176.601563 297.378906 176.898438 L 306.773438 193.105469 L 316.289063 177.070313 C 316.566406 176.601563 316.804688 176.128906 316.980469 175.789063 C 317.121094 175.441406 317.164063 175.140625 317.164063 174.886719 C 317.164063 174.367188 316.910156 174.152344 316.367188 174.152344 L 316.367188 173.121094 L 328.492188 173.121094 L 328.492188 174.152344 C 328.167969 174.152344 327.867188 174.195313 327.578125 174.328125 C 327.394531 174.496094 327.21875 174.800781 327.21875 175.226563 L 327.21875 203.699219 C 327.21875 204.058594 327.394531 204.363281 327.578125 204.535156 C 327.867188 204.75 328.167969 204.832031 328.492188 204.832031 L 328.492188 205.90625 L 318.21875 205.90625 L 318.21875 204.832031 C 319.355469 204.832031 319.953125 204.449219 319.953125 203.699219 L 319.953125 182.902344 L 319.867188 182.902344 L 306.601563 205.90625 L 306.410156 205.90625 L 293.414063 182.859375 L 293.285156 182.859375 L 293.285156 203.699219 C 293.285156 204.449219 293.847656 204.832031 295.128906 204.832031 L 295.128906 205.90625 L 285.246094 205.90625 "/>
</g>
</svg>
